<svg xmlns="http://www.w3.org/2000/svg" viewBox="0 0 1024 370">
  <title>header</title>
  <g>
    <path d="M383.968,238.321h-9.349v15.852c0,1.04.022,2,.068,2.879a5.935,5.935,0,0,0,.542,2.3,3.629,3.629,0,0,0,1.423,1.559,5.248,5.248,0,0,0,2.709.575,10.825,10.825,0,0,0,2.371-.271,9.952,9.952,0,0,0,2.3-.812l.2,4.809a12.048,12.048,0,0,1-3.015.881,19.663,19.663,0,0,1-3.15.271,11.449,11.449,0,0,1-4.539-.745,6.152,6.152,0,0,1-2.642-2.1,7.806,7.806,0,0,1-1.253-3.353,29.6,29.6,0,0,1-.305-4.438v-17.41h-6.91v-4.472h6.91v-9.01h5.284v9.01h9.349Z" style="fill: #e28895"/>
    <path d="M417.1,259.8a16.089,16.089,0,0,1-6.233,5.115A19.775,19.775,0,0,1,403,266.367a16.375,16.375,0,0,1-6.707-1.321,15.1,15.1,0,0,1-5.047-3.557,15.559,15.559,0,0,1-3.184-5.284,18.745,18.745,0,0,1-1.118-6.5,18.165,18.165,0,0,1,1.219-6.741,15.62,15.62,0,0,1,3.388-5.284,15.194,15.194,0,0,1,5.149-3.421,17,17,0,0,1,6.5-1.22,16.2,16.2,0,0,1,6.1,1.118,13.222,13.222,0,0,1,4.776,3.252,14.608,14.608,0,0,1,3.082,5.217,21.082,21.082,0,0,1,1.084,7.011v1.694H392.639a11.092,11.092,0,0,0,.982,3.9,11.3,11.3,0,0,0,2.2,3.252,10.166,10.166,0,0,0,3.185,2.2,9.741,9.741,0,0,0,4,.812,12.638,12.638,0,0,0,5.826-1.219,13.24,13.24,0,0,0,4.268-3.591Zm-4.539-12.939a9.114,9.114,0,0,0-2.642-6.5,9.491,9.491,0,0,0-6.91-2.439,9.763,9.763,0,0,0-10.365,8.943Z" style="fill: #e28895"/>
    <path d="M424.75,241.369q0-2.167-.136-4.065t-.135-3.455h5.013q0,1.288.068,2.575t.068,2.641h.135a9.151,9.151,0,0,1,1.524-2.235,11.038,11.038,0,0,1,2.338-1.931,12.469,12.469,0,0,1,3.049-1.354,12.652,12.652,0,0,1,3.657-.509,12.424,12.424,0,0,1,4.3.644,10.5,10.5,0,0,1,2.88,1.558,7.684,7.684,0,0,1,1.8,1.964q.644,1.051,1.05,1.863a14.663,14.663,0,0,1,4.065-4.437,10.277,10.277,0,0,1,5.961-1.592,15.486,15.486,0,0,1,5.691.915,9.035,9.035,0,0,1,3.726,2.642,10.429,10.429,0,0,1,2.032,4.2,23.065,23.065,0,0,1,.61,5.521v19.24h-5.284V246.585a14.941,14.941,0,0,0-.339-3.184,7.369,7.369,0,0,0-1.219-2.777,6.4,6.4,0,0,0-2.371-1.965,8.485,8.485,0,0,0-3.794-.745,7.612,7.612,0,0,0-3.184.677,8.019,8.019,0,0,0-2.609,1.9,8.912,8.912,0,0,0-1.761,2.947,10.877,10.877,0,0,0-.644,3.828v18.291h-5.283V247.6q0-5.285-1.423-7.486a5.143,5.143,0,0,0-4.675-2.2,10.3,10.3,0,0,0-4.437.881,7.846,7.846,0,0,0-3.048,2.506,11.227,11.227,0,0,0-1.762,3.862,19.812,19.812,0,0,0-.576,4.945v15.446H424.75Z" style="fill: #e28895"/>
    <path d="M480.5,233.849h5.284v4.607h.136a15.569,15.569,0,0,1,5.047-4,14.105,14.105,0,0,1,6.334-1.423,17.917,17.917,0,0,1,6.809,1.254,15.164,15.164,0,0,1,5.249,3.489,16.068,16.068,0,0,1,3.388,5.284,18.674,18.674,0,0,1,0,13.278,16.355,16.355,0,0,1-3.353,5.284,15.228,15.228,0,0,1-5.047,3.489,15.615,15.615,0,0,1-6.233,1.253,14.671,14.671,0,0,1-7.486-1.863,12.072,12.072,0,0,1-4.708-4.573h-.136V281H480.5Zm5.284,15.853a13.414,13.414,0,0,0,.78,4.64,10.7,10.7,0,0,0,5.825,6.233,12.24,12.24,0,0,0,9.282,0,10.706,10.706,0,0,0,5.826-6.233,14.211,14.211,0,0,0,0-9.281,10.713,10.713,0,0,0-5.826-6.233,12.24,12.24,0,0,0-9.282,0,10.708,10.708,0,0,0-5.825,6.233A13.423,13.423,0,0,0,485.788,249.7Z" style="fill: #e28895"/>
    <path d="M520.947,214.339h5.285v51.215h-5.285Z" style="fill: #e28895"/>
    <path d="M534.632,237.914a14.9,14.9,0,0,1,5.793-3.692,20.3,20.3,0,0,1,6.808-1.186q7.044,0,10.161,3.32t3.117,10.094v13.617q0,1.356.136,2.811t.338,2.676h-5.08a10.974,10.974,0,0,1-.3-2.4q-.036-1.32-.035-2.337h-.135a12.4,12.4,0,0,1-4.166,4A12.013,12.013,0,0,1,545,266.367a16.548,16.548,0,0,1-4.572-.61,11.4,11.4,0,0,1-3.727-1.8,8.877,8.877,0,0,1-2.541-2.947,8.443,8.443,0,0,1-.948-4.065,8.825,8.825,0,0,1,2.033-6.164,12.317,12.317,0,0,1,5.047-3.32,24.848,24.848,0,0,1,6.5-1.355q3.489-.27,6.4-.271h2.033v-.948a6.478,6.478,0,0,0-2.066-5.217,8.666,8.666,0,0,0-5.792-1.761,15.46,15.46,0,0,0-5.048.847,12.129,12.129,0,0,0-4.37,2.608Zm15.31,12.4a18.968,18.968,0,0,0-8.061,1.423,4.831,4.831,0,0,0-2.981,4.674,4.6,4.6,0,0,0,2,4.235,9.2,9.2,0,0,0,4.979,1.253,9.722,9.722,0,0,0,4.031-.779,8.47,8.47,0,0,0,2.879-2.067,8.93,8.93,0,0,0,1.761-3.014,12.312,12.312,0,0,0,.678-3.692v-2.033Z" style="fill: #e28895"/>
    <path d="M585.847,238.321H576.5v15.852c0,1.04.022,2,.066,2.879a5.935,5.935,0,0,0,.543,2.3,3.645,3.645,0,0,0,1.422,1.559,5.256,5.256,0,0,0,2.711.575,10.846,10.846,0,0,0,2.371-.271,9.977,9.977,0,0,0,2.3-.812l.2,4.809a12.048,12.048,0,0,1-3.015.881,19.654,19.654,0,0,1-3.15.271,11.449,11.449,0,0,1-4.539-.745,6.152,6.152,0,0,1-2.642-2.1,7.806,7.806,0,0,1-1.253-3.353,29.6,29.6,0,0,1-.3-4.438v-17.41H564.3v-4.472h6.91v-9.01H576.5v9.01h9.348Z" style="fill: #e28895"/>
    <path d="M618.974,259.8a16.094,16.094,0,0,1-6.232,5.115,19.775,19.775,0,0,1-7.858,1.456,16.372,16.372,0,0,1-6.707-1.321,15.1,15.1,0,0,1-5.047-3.557,15.577,15.577,0,0,1-3.185-5.284,18.745,18.745,0,0,1-1.118-6.5,18.145,18.145,0,0,1,1.22-6.741,15.62,15.62,0,0,1,3.388-5.284,15.2,15.2,0,0,1,5.148-3.421,17.011,17.011,0,0,1,6.5-1.22,16.194,16.194,0,0,1,6.1,1.118,13.225,13.225,0,0,1,4.777,3.252,14.622,14.622,0,0,1,3.082,5.217,21.083,21.083,0,0,1,1.083,7.011v1.694H594.518a11.093,11.093,0,0,0,.983,3.9,11.259,11.259,0,0,0,2.2,3.252,10.145,10.145,0,0,0,3.183,2.2,9.746,9.746,0,0,0,4,.812,12.631,12.631,0,0,0,5.825-1.219,13.23,13.23,0,0,0,4.268-3.591Zm-4.539-12.939a9.11,9.11,0,0,0-2.642-6.5,9.49,9.49,0,0,0-6.909-2.439,9.763,9.763,0,0,0-10.366,8.943Z" style="fill: #e28895"/>
    <path d="M643.768,241.369q0-2.167-.134-4.065t-.136-3.455h5.013q0,1.288.067,2.575t.068,2.641h.136a9.179,9.179,0,0,1,1.524-2.235,11.038,11.038,0,0,1,2.338-1.931,12.478,12.478,0,0,1,3.048-1.354,12.656,12.656,0,0,1,3.659-.509,8.972,8.972,0,0,1,1.083.068,4.782,4.782,0,0,1,1.084.271l-.338,5.352a9.86,9.86,0,0,0-2.846-.406q-4.876,0-7.079,3.149t-2.2,8.638v15.446h-5.285Z" style="fill: #e28895"/>
    <path d="M693.02,259.8a16.089,16.089,0,0,1-6.233,5.115,19.771,19.771,0,0,1-7.858,1.456,16.375,16.375,0,0,1-6.707-1.321,15.1,15.1,0,0,1-5.047-3.557,15.593,15.593,0,0,1-3.185-5.284,18.767,18.767,0,0,1-1.117-6.5,18.145,18.145,0,0,1,1.22-6.741,15.6,15.6,0,0,1,3.387-5.284,15.213,15.213,0,0,1,5.149-3.421,17.007,17.007,0,0,1,6.5-1.22,16.194,16.194,0,0,1,6.1,1.118,13.225,13.225,0,0,1,4.777,3.252,14.637,14.637,0,0,1,3.082,5.217,21.108,21.108,0,0,1,1.083,7.011v1.694H668.563a11.137,11.137,0,0,0,.983,3.9,11.279,11.279,0,0,0,2.2,3.252,10.161,10.161,0,0,0,3.184,2.2,9.741,9.741,0,0,0,4,.812,12.633,12.633,0,0,0,5.826-1.219,13.24,13.24,0,0,0,4.268-3.591Zm-4.539-12.939a9.114,9.114,0,0,0-2.642-6.5,9.491,9.491,0,0,0-6.91-2.439,9.764,9.764,0,0,0-10.366,8.943Z" style="fill: #e28895"/>
    <path d="M700.4,233.849h5.284v4.607h.136a15.569,15.569,0,0,1,5.047-4,14.1,14.1,0,0,1,6.334-1.423,17.912,17.912,0,0,1,6.808,1.254,15.168,15.168,0,0,1,5.25,3.489,16.068,16.068,0,0,1,3.388,5.284,18.674,18.674,0,0,1,0,13.278,16.371,16.371,0,0,1-3.353,5.284,15.222,15.222,0,0,1-5.048,3.489,15.611,15.611,0,0,1-6.232,1.253,14.671,14.671,0,0,1-7.486-1.863,12.066,12.066,0,0,1-4.708-4.573h-.136V281H700.4Zm5.284,15.853a13.437,13.437,0,0,0,.779,4.64,10.7,10.7,0,0,0,5.827,6.233,12.235,12.235,0,0,0,9.28,0,10.7,10.7,0,0,0,5.827-6.233,14.211,14.211,0,0,0,0-9.281,10.711,10.711,0,0,0-5.827-6.233,12.235,12.235,0,0,0-9.28,0,10.7,10.7,0,0,0-5.827,6.233A13.447,13.447,0,0,0,705.688,249.7Z" style="fill: #e28895"/>
    <path d="M740.847,214.339h5.284v51.215h-5.284Z" style="fill: #e28895"/>
    <path d="M754.531,237.914a14.909,14.909,0,0,1,5.793-3.692,20.3,20.3,0,0,1,6.809-1.186q7.044,0,10.161,3.32t3.117,10.094v13.617q0,1.356.135,2.811t.339,2.676H775.8a11.1,11.1,0,0,1-.3-2.4q-.034-1.32-.034-2.337h-.135a12.414,12.414,0,0,1-4.167,4,12.011,12.011,0,0,1-6.267,1.558,16.559,16.559,0,0,1-4.572-.61,11.4,11.4,0,0,1-3.726-1.8,8.866,8.866,0,0,1-2.541-2.947,8.443,8.443,0,0,1-.948-4.065,8.829,8.829,0,0,1,2.032-6.164,12.327,12.327,0,0,1,5.048-3.32,24.84,24.84,0,0,1,6.5-1.355q3.488-.27,6.4-.271h2.032v-.948a6.478,6.478,0,0,0-2.066-5.217,8.665,8.665,0,0,0-5.792-1.761,15.459,15.459,0,0,0-5.047.847,12.129,12.129,0,0,0-4.37,2.608Zm15.311,12.4a18.976,18.976,0,0,0-8.062,1.423,4.831,4.831,0,0,0-2.981,4.674,4.6,4.6,0,0,0,2,4.235,9.2,9.2,0,0,0,4.979,1.253,9.722,9.722,0,0,0,4.031-.779,8.466,8.466,0,0,0,2.878-2.067,8.933,8.933,0,0,0,1.762-3.014,12.281,12.281,0,0,0,.677-3.692v-2.033Z" style="fill: #e28895"/>
    <path d="M810.963,241.775a10.735,10.735,0,0,0-3.658-2.947,10.165,10.165,0,0,0-4.336-.914,11.3,11.3,0,0,0-4.674.914,9,9,0,0,0-3.354,2.541,11.332,11.332,0,0,0-2,3.76,15.021,15.021,0,0,0-.678,4.573,13.209,13.209,0,0,0,.779,4.572,12.145,12.145,0,0,0,2.169,3.761,9.791,9.791,0,0,0,3.353,2.54,10.316,10.316,0,0,0,4.4.914,9.365,9.365,0,0,0,8.062-3.929l3.93,3.726a13.793,13.793,0,0,1-5.42,3.862,18.689,18.689,0,0,1-13.279,0,14.506,14.506,0,0,1-5.182-3.455,15.9,15.9,0,0,1-3.32-5.285,18.361,18.361,0,0,1-1.186-6.706,18.167,18.167,0,0,1,1.186-6.639,15.61,15.61,0,0,1,3.354-5.284,15.315,15.315,0,0,1,5.182-3.489,17.209,17.209,0,0,1,6.673-1.254,18.323,18.323,0,0,1,6.673,1.22,14.591,14.591,0,0,1,5.521,3.794Z" style="fill: #e28895"/>
    <path d="M847.682,259.8a16.1,16.1,0,0,1-6.233,5.115,19.775,19.775,0,0,1-7.858,1.456,16.372,16.372,0,0,1-6.707-1.321,15.1,15.1,0,0,1-5.047-3.557,15.593,15.593,0,0,1-3.185-5.284,18.745,18.745,0,0,1-1.118-6.5,18.165,18.165,0,0,1,1.22-6.741,15.62,15.62,0,0,1,3.388-5.284,15.209,15.209,0,0,1,5.148-3.421,17.011,17.011,0,0,1,6.5-1.22,16.194,16.194,0,0,1,6.1,1.118,13.208,13.208,0,0,1,4.777,3.252,14.622,14.622,0,0,1,3.082,5.217,21.082,21.082,0,0,1,1.084,7.011v1.694H823.225a11.093,11.093,0,0,0,.983,3.9,11.259,11.259,0,0,0,2.2,3.252,10.157,10.157,0,0,0,3.183,2.2,9.746,9.746,0,0,0,4,.812,12.631,12.631,0,0,0,5.825-1.219,13.219,13.219,0,0,0,4.268-3.591Zm-4.54-12.939a9.11,9.11,0,0,0-2.642-6.5,9.488,9.488,0,0,0-6.909-2.439,9.764,9.764,0,0,0-10.366,8.943Z" style="fill: #e28895"/>
    <path d="M855.336,241.369q0-2.167-.135-4.065t-.136-3.455h5.013q0,1.288.068,2.575t.068,2.641h.136a9.123,9.123,0,0,1,1.524-2.235,11.007,11.007,0,0,1,2.337-1.931,12.478,12.478,0,0,1,3.048-1.354,12.665,12.665,0,0,1,3.659-.509A8.946,8.946,0,0,1,872,233.1a4.79,4.79,0,0,1,1.085.271l-.339,5.352a9.853,9.853,0,0,0-2.845-.406q-4.878,0-7.08,3.149t-2.2,8.638v15.446h-5.284Z" style="fill: #e28895"/>
  </g>
  <g>
    <path d="M860.622,150.672a28.241,28.241,0,0,0-6.461-5.139,13.884,13.884,0,0,0-6.9-1.909,20.118,20.118,0,0,0-15.2,6.461,19.887,19.887,0,0,0-4.112,6.755,23.234,23.234,0,0,0,0,15.859,19.835,19.835,0,0,0,4.112,6.754,20.118,20.118,0,0,0,15.2,6.461,17.428,17.428,0,0,0,7.635-1.689,16.591,16.591,0,0,0,6.02-4.918l11.747,12.628a27.106,27.106,0,0,1-6.093,4.552,41.492,41.492,0,0,1-6.975,3.083,42.742,42.742,0,0,1-6.755,1.689,36.344,36.344,0,0,1-5.579.514,42.3,42.3,0,0,1-14.978-2.643,35.928,35.928,0,0,1-12.188-7.489,35.5,35.5,0,0,1-8.15-11.674,39.871,39.871,0,0,1,0-30.4A35.5,35.5,0,0,1,820.1,137.9a35.913,35.913,0,0,1,12.188-7.489,42.3,42.3,0,0,1,14.978-2.643,38.381,38.381,0,0,1,13.582,2.57,30.921,30.921,0,0,1,11.967,8.149Z" style="fill: #e8000c"/>
    <path d="M721.509,164.77a37.286,37.286,0,0,1,3.01-15.2,35.5,35.5,0,0,1,8.15-11.674,35.913,35.913,0,0,1,12.188-7.489,43.759,43.759,0,0,1,29.955,0A35.918,35.918,0,0,1,787,137.9a35.54,35.54,0,0,1,8.15,11.674,39.859,39.859,0,0,1,0,30.4A35.54,35.54,0,0,1,787,191.641a35.934,35.934,0,0,1-12.187,7.489,43.759,43.759,0,0,1-29.955,0,35.928,35.928,0,0,1-12.188-7.489,35.5,35.5,0,0,1-8.15-11.674A37.288,37.288,0,0,1,721.509,164.77Zm17.621,0a22.876,22.876,0,0,0,1.395,7.929,19.835,19.835,0,0,0,4.112,6.754,20.83,20.83,0,0,0,30.4,0,19.911,19.911,0,0,0,4.111-6.754,23.25,23.25,0,0,0,0-15.859,19.964,19.964,0,0,0-4.111-6.755,20.827,20.827,0,0,0-30.4,0,19.887,19.887,0,0,0-4.112,6.755A22.894,22.894,0,0,0,739.13,164.77Z" style="fill: #e8000c"/>
    <path d="M693.522,189.438h-.293a22.661,22.661,0,0,1-10.279,9.4A33.321,33.321,0,0,1,669,201.773a35.353,35.353,0,0,1-14.611-2.864,32.705,32.705,0,0,1-10.939-7.855,33.538,33.538,0,0,1-6.9-11.747A43.924,43.924,0,0,1,634.2,164.77a41.553,41.553,0,0,1,2.5-14.538,36.124,36.124,0,0,1,6.973-11.747,32.178,32.178,0,0,1,10.793-7.856,33.042,33.042,0,0,1,13.8-2.863,34.089,34.089,0,0,1,8.81,1.028,30.37,30.37,0,0,1,6.755,2.643,27.149,27.149,0,0,1,4.992,3.451,25.116,25.116,0,0,1,3.378,3.6h.44V89h17.622V200.011H693.522Zm-41.7-24.668a22.877,22.877,0,0,0,1.4,7.929,19.817,19.817,0,0,0,4.111,6.754,20.829,20.829,0,0,0,30.4,0,19.93,19.93,0,0,0,4.112-6.754,23.25,23.25,0,0,0,0-15.859,19.982,19.982,0,0,0-4.112-6.755,20.827,20.827,0,0,0-30.4,0,19.869,19.869,0,0,0-4.111,6.755A22.9,22.9,0,0,0,651.82,164.77Z" style="fill: #e8000c"/>
    <path d="M611.351,157.868V156.1q0-17.764-17.62-17.767a30.356,30.356,0,0,0-21,8.076l-5.874-6.9q9.692-9.984,29.074-9.985A31.667,31.667,0,0,1,605.552,131a21.792,21.792,0,0,1,8,4.479,22.249,22.249,0,0,1,5.432,7.562,26.264,26.264,0,0,1,2.056,10.866v30.69q0,3.965.368,8.3t.806,7.122h-9.4q-.441-2.5-.661-5.433t-.22-5.727h-.294a26.26,26.26,0,0,1-10.058,9.911,30.49,30.49,0,0,1-14.17,3.011,31.222,31.222,0,0,1-8.81-1.248,22.4,22.4,0,0,1-7.562-3.819,19.353,19.353,0,0,1-5.287-6.314,18.4,18.4,0,0,1-1.982-8.736q0-8.37,4.332-13.142a26.491,26.491,0,0,1,10.866-7.122,53.621,53.621,0,0,1,13.949-2.937q7.414-.585,13.583-.587Zm-4.992,7.93q-3.672,0-9.177.366a53.108,53.108,0,0,0-10.573,1.762,23.32,23.32,0,0,0-8.664,4.332,9.863,9.863,0,0,0-3.6,8.076,11.42,11.42,0,0,0,1.4,5.8,11.591,11.591,0,0,0,3.745,3.965,15.922,15.922,0,0,0,5.212,2.2,25.677,25.677,0,0,0,5.8.661,22.1,22.1,0,0,0,9.179-1.762A18.672,18.672,0,0,0,610.1,179.38a28.961,28.961,0,0,0,1.248-8.59V165.8Z" style="fill: #99001d"/>
    <path d="M520.2,152.728q0-4.55-.22-9.251t-.367-12.187h9.544v12.775h.294a21.306,21.306,0,0,1,2.937-5.359,22.981,22.981,0,0,1,4.625-4.626,22.726,22.726,0,0,1,6.314-3.3,24.8,24.8,0,0,1,8.149-1.248,26.349,26.349,0,0,1,7.2.881l-1.911,9.544a16.344,16.344,0,0,0-5.578-.734,19.926,19.926,0,0,0-9.546,2.13,21.16,21.16,0,0,0-6.607,5.433,22.535,22.535,0,0,0-3.891,7.121,23.55,23.55,0,0,0-1.249,7.342v38.766H520.2Z" style="fill: #99001d"/>
    <path d="M505.575,140.1H485.751v40.528a21.978,21.978,0,0,0,.734,6.24,8.8,8.8,0,0,0,2.056,3.745,7.067,7.067,0,0,0,3.157,1.835,14.848,14.848,0,0,0,4.039.514,19.072,19.072,0,0,0,5.139-.734,23.682,23.682,0,0,0,4.846-1.909l.44,8.958a31.155,31.155,0,0,1-13.069,2.5,24.464,24.464,0,0,1-5.8-.734,13.683,13.683,0,0,1-5.507-2.79,15.344,15.344,0,0,1-4.111-5.58,22.39,22.39,0,0,1-1.615-9.251V140.1H461.523v-8.81H476.06V111.907h9.691V131.29h19.824Z" style="fill: #99001d"/>
    <path d="M403.845,131.29q.293,2.79.367,5.507t.073,5.506h.294a22.615,22.615,0,0,1,4.112-5.14,27.146,27.146,0,0,1,5.579-4.037,30.535,30.535,0,0,1,6.535-2.643,25.524,25.524,0,0,1,6.828-.955q13.217,0,19.53,6.975t6.314,19.9v43.612h-9.691V161.979q0-11.454-3.965-17.547t-14.684-6.094a37.724,37.724,0,0,0-4.111.587,17.9,17.9,0,0,0-7.122,3.231,23.33,23.33,0,0,0-6.682,7.929q-2.938,5.286-2.937,14.685v35.241h-9.691v-53.6q0-2.787-.22-7.048t-.514-8.076Z" style="fill: #99001d"/>
    <rect x="366.754" y="131.29" width="9.691" height="68.721" style="fill: #99001d"/>
    <polygon points="371.535 89.157 387.563 89.157 379.549 100.606 371.535 112.055 363.52 100.606 355.506 89.157 371.535 89.157" style="fill: #99001d"/>
  </g>
  <g>
    <path d="M295.042,122.111H245.175V164.3L259.138,176.7l5.256,4.671h28.725v7.25H264.394l-5.256,4.671L245.175,205.7v42.185h49.867a7.4,7.4,0,0,0,7.4-7.4V129.509A7.4,7.4,0,0,0,295.042,122.111Zm-40.4,76.281H261.9v7.251h-7.251Zm0,16.943h31.223v7.251H254.645Zm7.251,24.12h-7.251V232.2H261.9Zm31.223,0H270.33V232.2h22.789Zm0-33.738H270.33v-7.251h22.789Zm-38.474-75.172h22.936V137.8H254.645Zm0,16.943H270.33v7.251H254.645Zm31.223,24.194H254.645v-7.251h31.223Zm7.251-33.886h-7.251v-7.251h7.251Z" style="fill: #99001d"/>
    <path d="M190.491,175.556v-11.1h17.69V122.111H158.313a7.4,7.4,0,0,0-7.4,7.4V240.491a7.4,7.4,0,0,0,7.4,7.4h49.868V205.542h-17.69V175.556Zm1.265-45.011h7.25V137.8h-7.25Zm-31.223,0h22.936V137.8H160.533Zm22.936,15.538L172,160.88l-11.468-14.8Zm-11.32,42.542A3.625,3.625,0,1,1,175.774,185,3.626,3.626,0,0,1,172.149,188.625Zm3.625,9.693a3.626,3.626,0,1,1-3.625-3.626A3.625,3.625,0,0,1,175.774,198.318Zm-3.625-23.01a3.626,3.626,0,1,1,3.625-3.626A3.627,3.627,0,0,1,172.149,175.308ZM172,209.12l11.468,14.8H160.533Zm-4.217,30.335h-7.251V232.2h7.251Zm31.222-7.251v7.251H176.218V232.2Z" style="fill: #e85d64"/>
    <polygon points="234.076 154.434 234.076 109.237 219.279 109.237 219.279 141.285 232.57 153.095 234.076 154.434" style="fill: #e8000c"/>
    <polygon points="219.279 228.715 219.279 260.763 234.076 260.763 234.076 215.566 232.57 216.905 219.279 228.715" style="fill: #e8000c"/>
    <polygon points="219.279 175.53 201.589 175.556 201.589 194.444 219.279 194.47 219.279 214.003 251.766 185 219.279 155.997 219.279 175.53" style="fill: #e8000c"/>
  </g>
</svg>
