<svg xmlns="http://www.w3.org/2000/svg" viewBox="0 0 1024 1024">
  <title>logo</title>
  <path d="M1102,215H765V500.084l94.364,83.852,35.52,31.564H1089v49H894.884l-35.52,31.564L765,779.916V1065h337a50,50,0,0,0,50-50V265A50,50,0,0,0,1102,215ZM829,730.5h49v49H829ZM829,845h211v49H829Zm49,163H829V959h49Zm211,0H935V959h154Zm0-228H935V731h154ZM829,272H984v49H829Zm0,114.5H935v49H829ZM1040,550H829V501h211Zm49-229h-49V272h49Z" transform="translate(-128 -128)" style="fill: #99001d"/>
  <path d="M395.455,576.182v-75H515V215H178a50,50,0,0,0-50,50v750a50,50,0,0,0,50,50H515V778.818H395.455V576.182ZM404,272h49v49H404Zm-211,0H348v49H193ZM348,377,270.5,477,193,377ZM271.5,664.5A24.5,24.5,0,1,1,296,640,24.5,24.5,0,0,1,271.5,664.5ZM296,730a24.5,24.5,0,1,1-24.5-24.5A24.5,24.5,0,0,1,296,730ZM271.5,574.5A24.5,24.5,0,1,1,296,550,24.5,24.5,0,0,1,271.5,574.5Zm-1,228.5L348,903H193ZM242,1008H193V959h49Zm211-49v49H299V959Z" transform="translate(-128 -128)" style="fill: #e85d64"/>
  <polygon points="562 305.438 562 0 462 0 462 216.578 551.818 296.391 562 305.438" style="fill: #e8000c"/>
  <polygon points="462 807.422 462 1024 562 1024 562 718.562 551.818 727.609 462 807.422" style="fill: #e8000c"/>
  <polygon points="462 448 342.455 448.182 342.455 575.818 462 576 462 708 681.545 512 462 316 462 448" style="fill: #e8000c"/>
</svg>
